<?xml version="1.0" encoding="UTF-8" standalone="no"?>
<!DOCTYPE svg PUBLIC "-//W3C//DTD SVG 1.1//EN" "http://www.w3.org/Graphics/SVG/1.1/DTD/svg11.dtd">
<svg width="100%" height="100%" viewBox="0 0 141 141" version="1.1" xmlns="http://www.w3.org/2000/svg" xmlns:xlink="http://www.w3.org/1999/xlink" xml:space="preserve" xmlns:serif="http://www.serif.com/" style="fill-rule:evenodd;clip-rule:evenodd;stroke-linejoin:round;stroke-miterlimit:2;">
    <g transform="matrix(1,0,0,1,-1274.43,-774.173)">
        <g transform="matrix(13.5118,0,0,13.5118,1371.61,774.331)">
            <path d="M0,10.35L0,10.13C0,8.957 0.003,7.784 -0.004,6.612C-0.005,6.433 0.037,6.362 0.23,6.371C0.546,6.388 0.863,6.38 1.18,6.371C1.237,6.369 1.337,6.318 1.343,6.277C1.42,5.782 1.484,5.284 1.554,4.764C1.446,4.757 1.367,4.748 1.288,4.748C0.925,4.746 0.561,4.742 0.197,4.75C0.05,4.753 -0.009,4.712 -0.003,4.557C0.008,4.267 -0.002,3.977 0.004,3.688C0.013,3.242 0.214,3.04 0.665,3.027C0.921,3.019 1.177,3.019 1.433,3.027C1.566,3.031 1.613,2.98 1.612,2.851C1.608,2.48 1.616,2.11 1.605,1.739C1.603,1.682 1.531,1.58 1.485,1.576C0.843,1.524 0.195,1.423 -0.435,1.648C-1.137,1.899 -1.53,2.421 -1.625,3.144C-1.681,3.568 -1.66,4.003 -1.673,4.433C-1.676,4.526 -1.673,4.62 -1.673,4.747C-1.991,4.747 -2.292,4.745 -2.592,4.748C-3.091,4.752 -3.034,4.682 -3.037,5.185C-3.04,5.502 -3.03,5.819 -3.041,6.135C-3.047,6.316 -2.994,6.387 -2.802,6.38C-2.434,6.366 -2.065,6.376 -1.685,6.376L-1.685,10.351C-1.766,10.355 -1.838,10.361 -1.91,10.361C-3.453,10.361 -4.997,10.362 -6.54,10.361C-6.989,10.361 -7.192,10.157 -7.192,9.708C-7.193,6.682 -7.193,3.656 -7.192,0.631C-7.192,0.191 -6.991,-0.011 -6.553,-0.011C-3.52,-0.012 -0.488,-0.012 2.545,-0.011C2.971,-0.011 3.179,0.195 3.179,0.618C3.18,3.657 3.18,6.696 3.179,9.736C3.179,10.143 2.964,10.36 2.558,10.361C1.776,10.362 0.994,10.361 0.213,10.361C0.153,10.361 0.094,10.355 0,10.35" style="fill:rgb(62,41,25);fill-rule:nonzero;"/>
        </g>
    </g>
</svg>
