<?xml version="1.0" encoding="UTF-8" standalone="no"?>
<!DOCTYPE svg PUBLIC "-//W3C//DTD SVG 1.1//EN" "http://www.w3.org/Graphics/SVG/1.1/DTD/svg11.dtd">
<svg width="100%" height="100%" viewBox="0 0 141 139" version="1.1" xmlns="http://www.w3.org/2000/svg" xmlns:xlink="http://www.w3.org/1999/xlink" xml:space="preserve" xmlns:serif="http://www.serif.com/" style="fill-rule:evenodd;clip-rule:evenodd;stroke-linejoin:round;stroke-miterlimit:2;">
    <g transform="matrix(1,0,0,1,-1274.43,-1027.2)">
        <g transform="matrix(3.29575,0,0,3.29575,-2727.28,-6058.15)">
            <g transform="matrix(4.16667,0,0,4.16667,1256.69,2170.86)">
                <path d="M0,0.012C0,0.776 0.024,1.542 -0.005,2.305C-0.065,3.879 -1.18,4.993 -2.772,5.029C-4.325,5.064 -5.88,5.065 -7.433,5.028C-8.998,4.99 -10.131,3.871 -10.168,2.325C-10.206,0.782 -10.206,-0.764 -10.169,-2.307C-10.131,-3.867 -8.992,-4.985 -7.418,-5.019C-5.873,-5.052 -4.325,-5.053 -2.78,-5.02C-1.185,-4.985 -0.065,-3.874 -0.005,-2.304C0.024,-1.533 0,-0.76 0,0.012M-0.852,0.006L-0.897,0.006C-0.897,-0.683 -0.895,-1.371 -0.899,-2.06C-0.899,-2.182 -0.922,-2.303 -0.935,-2.425C-1.026,-3.297 -1.557,-3.905 -2.433,-4.057C-2.886,-4.136 -3.356,-4.15 -3.818,-4.149C-5.055,-4.147 -6.293,-4.146 -7.528,-4.094C-8.416,-4.057 -9.035,-3.498 -9.194,-2.638C-9.27,-2.228 -9.289,-1.803 -9.288,-1.384C-9.286,-0.123 -9.293,1.14 -9.234,2.4C-9.188,3.387 -8.515,4.071 -7.507,4.101C-5.878,4.151 -4.245,4.146 -2.615,4.098C-1.68,4.07 -1.01,3.365 -0.942,2.435C-0.882,1.628 -0.88,0.816 -0.852,0.006" style="fill:rgb(62,41,25);fill-rule:nonzero;"/>
            </g>
            <g transform="matrix(4.16667,0,0,4.16667,1224.53,2170.96)">
                <path d="M0,-0.032C-0.003,-1.467 1.164,-2.618 2.624,-2.62C4.092,-2.622 5.254,-1.474 5.259,-0.018C5.264,1.418 4.099,2.576 2.645,2.583C1.164,2.59 0.003,1.442 0,-0.032M4.347,-0.005C4.343,-0.954 3.578,-1.718 2.631,-1.719C1.693,-1.72 0.897,-0.941 0.91,-0.034C0.922,0.925 1.677,1.679 2.625,1.681C3.56,1.684 4.35,0.91 4.347,-0.005" style="fill:rgb(62,41,25);fill-rule:nonzero;"/>
            </g>
            <g transform="matrix(4.16597,0.0759962,0.0759962,-4.16597,1246.83,2162.08)">
                <path d="M0.011,-0C-0.329,-0.001 -0.595,0.255 -0.6,0.589C-0.605,0.93 -0.329,1.209 0.011,1.206C0.341,1.205 0.619,0.936 0.627,0.612C0.634,0.277 0.356,0.001 0.011,-0" style="fill:rgb(62,41,25);fill-rule:nonzero;"/>
            </g>
        </g>
    </g>
</svg>
